<svg width="188" height="64" viewBox="0 0 188 64" fill="none" xmlns="http://www.w3.org/2000/svg">
<rect y="24" width="6" height="16" rx="3" fill="#485422" fill-opacity="0.3"/>
<rect x="14" y="16" width="6" height="32" rx="3" fill="#485422" fill-opacity="0.4"/>
<rect x="28" y="8" width="6" height="48" rx="3" fill="#485422" fill-opacity="0.6"/>
<rect x="42" y="12" width="6" height="40" rx="3" fill="#485422" fill-opacity="0.8"/>
<rect x="56" y="20" width="6" height="24" rx="3" fill="#485422" fill-opacity="0.5"/>
<rect x="70" y="4" width="6" height="56" rx="3" fill="#485422"/>
<rect x="84" y="14" width="6" height="36" rx="3" fill="#485422" fill-opacity="0.9"/>
<rect x="98" y="10" width="6" height="44" rx="3" fill="#485422" fill-opacity="0.7"/>
<rect x="112" y="22" width="6" height="20" rx="3" fill="#485422" fill-opacity="0.4"/>
<rect x="126" y="8" width="6" height="48" rx="3" fill="#485422" fill-opacity="0.6"/>
<rect x="140" width="6" height="64" rx="3" fill="#485422"/>
<rect x="154" y="18" width="6" height="28" rx="3" fill="#485422" fill-opacity="0.5"/>
<rect x="168" y="12" width="6" height="40" rx="3" fill="#485422" fill-opacity="0.8"/>
<rect x="182" y="24" width="6" height="16" rx="3" fill="#485422" fill-opacity="0.3"/>
</svg>
